<?xml version="1.0" standalone="no"?>
<!DOCTYPE svg PUBLIC "-//W3C//DTD SVG 20010904//EN"
 "http://www.w3.org/TR/2001/REC-SVG-20010904/DTD/svg10.dtd">
<svg version="1.0" xmlns="http://www.w3.org/2000/svg"
 width="700.000000pt" height="700.000000pt" viewBox="0 0 700.000000 700.000000"
 preserveAspectRatio="xMidYMid meet">
<metadata>
Created by potrace 1.11, written by Peter Selinger 2001-2013
</metadata>
<g transform="translate(0.000000,700.000000) scale(0.100000,-0.100000)"
fill="#000000" stroke="none">
<path d="M3288 4623 c-120 -240 -216 -438 -215 -439 1 -1 29 7 62 18 229 77
505 79 741 4 41 -13 74 -21 74 -18 0 11 -434 872 -439 872 -4 -1 -104 -197
-223 -437z"/>
<path d="M2076 4563 c-1 -1 -465 -3 -1031 -4 -567 -1 -1033 -4 -1036 -6 -8 -3
101 -224 114 -234 5 -4 521 -6 1148 -6 l1139 0 65 -32 c36 -18 78 -48 95 -69
27 -33 145 -250 138 -254 -5 -2 -565 -6 -983 -7 l-380 -1 122 -122 123 -123
562 0 563 -1 55 -26 c79 -37 122 -86 189 -217 l59 -116 -431 1 c-238 0 -435
-1 -439 -3 -4 -2 45 -56 109 -121 l117 -117 330 -5 c322 -5 332 -6 374 -28 91
-48 118 -89 276 -404 82 -164 151 -296 153 -294 2 2 69 135 149 296 155 311
183 353 276 402 42 23 50 23 372 26 l329 3 119 121 c65 66 118 121 118 122 0
1 -191 2 -425 1 -234 0 -432 2 -439 5 -16 7 96 217 142 265 18 18 58 46 90 62
l57 28 562 0 563 0 122 123 123 122 -300 0 c-774 1 -1066 5 -1063 15 2 5 27
56 56 113 63 123 114 182 184 212 l52 22 1142 1 1141 0 59 116 c32 64 59 118
60 121 1 3 -603 6 -1342 8 l-1344 2 -144 -292 c-79 -161 -262 -531 -406 -823
l-262 -530 -113 230 c-467 949 -583 1185 -638 1294 l-62 125 -303 0 c-167 1
-304 0 -306 -1z"/>
</g>
</svg>
