<svg viewBox="0 0 104 75" version="1.1" xmlns="http://www.w3.org/2000/svg">
    <!-- Generator: Sketch 60 (88103) - https://sketch.com -->
    <title>01</title>
    <g id="Page-1" stroke="none" stroke-width="1" fill="none" fill-rule="evenodd">
        <g id="Artboard" transform="translate(0.000000, -15.000000)" fill="#000000" fill-rule="nonzero">
            <path d="M31.9703704,90 C50.5555556,90 64.7111111,73.8046272 64.7111111,50.5719794 C64.7111111,30.3277635 51.8074074,15 32.7407407,15 C14.1555556,15 0,31.1953728 0,54.4280206 C0,74.5758355 12.9037037,90 31.9703704,90 Z M33.1253291,88.0088496 C21.0062244,88.0088496 14.5619385,70.302802 15.2352221,49.6941236 C15.8123223,29.8594801 20.910041,16.9911504 31.5863952,16.9911504 C43.6093166,16.9911504 50.1497858,34.697198 49.4765022,55.4026308 C48.899402,75.0437655 43.8016833,88.0088496 33.1253291,88.0088496 Z M104,88.6725664 L104,88.1904161 C97.7813853,85.5868044 95.3896104,83.5617732 95.3896104,80.7653014 L95.3896104,15 L95.0069264,15 C87.9272727,21.0750938 81.517316,25.4144466 70.3238095,27.5359079 L70.3238095,28.0180582 L82.474026,28.6930686 L82.474026,80.7653014 C82.474026,83.5617732 79.7952381,85.5868044 72.5242424,88.1904161 L72.5242424,88.6725664 L104,88.6725664 Z" id="01"></path>
        </g>
    </g>
</svg>
