<?xml version="1.0" encoding="UTF-8"?>
<svg viewBox="0 0 104 62" version="1.1" xmlns="http://www.w3.org/2000/svg" xmlns:xlink="http://www.w3.org/1999/xlink">
    <g id="Page-1" stroke="none" stroke-width="1" fill="none" fill-rule="evenodd">
        <g id="Artboard-Copy" transform="translate(0.000000, -21.000000)" fill="#6B4DE0" fill-rule="nonzero">
            <path d="M26.1845238,83 C41.40625,83 53,69.6118252 53,50.4061697 C53,33.6709512 42.4315476,21 26.8154762,21 C11.59375,21 0,34.3881748 0,53.5938303 C0,70.2493573 10.5684524,83 26.1845238,83 Z M27.6277185,81 C17.7450905,81 12.4900423,66.5395095 13.0390772,49.7084469 C13.5096785,33.5095368 17.6666569,23 26.3727816,23 C36.176976,23 41.5104577,37.4604905 40.9614229,54.3705722 C40.4908215,70.4114441 36.3338431,81 27.6277185,81 Z M103.135714,82 L103.135714,74.973822 L104,64.0353403 L103.607143,64.0353403 C97.95,70.5824607 94.3357143,73.776178 86.6357143,73.776178 L68.8,73.8560209 L78.6214286,65.8717277 C94.9642857,52.9371728 101.407143,45.7513089 101.407143,36.8089005 C101.407143,28.1060209 93.3928571,21 80.8214286,21 C67.7,21 60.1571429,28.9044503 60.1571429,36.25 C60.1571429,40.4816754 62.9071429,43.1963351 66.6,43.1963351 C70.7642857,43.1963351 73.1214286,40.4018325 73.1214286,36.8887435 C73.1214286,32.1780105 67.9357143,29.1439791 63.0642857,32.0183246 C65.0285714,27.3874346 70.2928571,24.9123037 76.4214286,24.9123037 C84.9071429,24.9123037 89.7785714,30.421466 89.7785714,37.9267016 C89.7785714,46.2303665 85.85,54.6138743 75.0857143,65.3926702 L66.6785714,73.8560209 L60,80.802356 L60,82 L103.135714,82 Z" id="02"></path>
        </g>
    </g>
</svg>
