<?xml version="1.0" encoding="UTF-8"?>
<svg viewBox="0 0 104 64" version="1.1" xmlns="http://www.w3.org/2000/svg" xmlns:xlink="http://www.w3.org/1999/xlink">
    <g id="Page-1" stroke="none" stroke-width="1" fill="none" fill-rule="evenodd">
        <g id="Artboard-Copy-2" transform="translate(0.000000, -20.000000)" fill="#AF9761" fill-rule="nonzero">
            <path d="M26.172619,84 C41.96875,84 54,70.1799486 54,50.3547558 C54,33.0796915 43.0327381,20 26.827381,20 C11.03125,20 -1,33.8200514 -1,53.6452442 C-1,70.8380463 9.9672619,84 26.172619,84 Z M27.150137,82 C16.914558,82 11.4718295,67.0408719 12.0404728,49.6294278 C12.5278813,32.8719346 16.8333233,22 25.8503809,22 C36.0047251,22 41.5286884,36.9591281 40.9600451,54.4523161 C40.4726366,71.0463215 36.1671946,82 27.150137,82 Z M78.3684211,84 C95.0653358,84 105,75.9383033 105,65.4087404 C105,55.9485861 96.3176044,49.7789203 76.4482759,50.2724936 C94.814882,48.2159383 102.578947,43.1156812 102.578947,34.8894602 C102.578947,26.1696658 94.7313975,20 82.7931034,20 C70.4373866,20 63.9255898,26.9100257 62.1724138,33.0796915 L62.5898367,33.4087404 C65.4283122,28.6375321 71.3557169,26.0874036 76.9491833,26.0874036 C85.7985481,26.0874036 90.3067151,30.4473008 90.3067151,36.8637532 C90.3067151,45.1722365 84.3793103,48.6272494 71.522686,49.6966581 L71.522686,51.2596401 C86.0490018,50.3547558 92.6442831,54.9614396 92.6442831,65.5732648 C92.6442831,75.3624679 86.2994555,80.2982005 75.5299456,80.2982005 C67.5989111,80.2982005 63.0072595,77.748072 61.9219601,73.8817481 C67.5154265,77.9125964 72.9419238,74.2107969 72.9419238,69.7686375 C72.9419238,66.066838 70.5208711,63.1053985 66.430127,63.1053985 C62.0054446,63.1053985 59,66.3136247 59,71.0025707 C59.0834846,78.5706941 66.1796733,84 78.3684211,84 Z" id="03"></path>
        </g>
    </g>
</svg>
