<svg xmlns="http://www.w3.org/2000/svg" viewBox="0 0 149.12 16.82"><defs><style>.cls-1{fill:#343434;}</style></defs><title>Asset 1</title><g id="Layer_2" data-name="Layer 2"><g id="Layer_1-2" data-name="Layer 1"><path class="cls-1" d="M52.67,14.82H48.46V4.75h4.1c2.06,0,3.19,1,3.19,2.73a2.28,2.28,0,0,1-1.26,2.15V9.7A2.2,2.2,0,0,1,56,12C56,13.85,54.72,14.82,52.67,14.82Zm-.15-8.59h-2.4V9.05h2.37A1.38,1.38,0,0,0,54,7.65,1.3,1.3,0,0,0,52.52,6.23Zm-2.4,4.19v2.92h2.57a1.43,1.43,0,0,0,1.56-1.47,1.39,1.39,0,0,0-1.44-1.45Z"/><path class="cls-1" d="M68.27,4.75a3.21,3.21,0,0,1,3.54,3.37,3.1,3.1,0,0,1-1.9,3.07v.12l2.17,3.28v.23H70.25L68.1,11.5h-2v3.32H64.42V4.75Zm-.09,1.48h-2.1V10h2.17a1.69,1.69,0,0,0,1.83-1.88A1.73,1.73,0,0,0,68.18,6.23Z"/><path class="cls-1" d="M88.39,14.82H86.63l-.72-2.06H81.66l-.72,2.06H79.18L82.94,4.75h1.68Zm-6.24-3.47h3.26L83.78,6.7Z"/><path class="cls-1" d="M94.37,4.75h1.76L99,12.86l2.85-8.11h1.76L99.81,14.82H98.13Z"/><path class="cls-1" d="M117.21,10.42h-4.16v2.92H118v1.48h-6.59V4.75H118V6.23h-4.93V9h4.16Z"/><path class="cls-1" d="M130.22,4.75a3.21,3.21,0,0,1,3.54,3.37,3.1,3.1,0,0,1-1.9,3.07v.12L134,14.59v.23H132.2l-2.15-3.32h-2v3.32h-1.67V4.75Zm-.08,1.48H128V10h2.16A1.69,1.69,0,0,0,132,8.14,1.72,1.72,0,0,0,130.14,6.23Z"/><path class="cls-1" d="M147.27,4.75h1.85l-3.31,6.14v3.93h-1.66V10.89l-3.31-6.14h1.85l2,3.94.34.78.35-.78Z"/><path class="cls-1" d="M28.77,4.77H42.71l.75-1.5-15.58,0h-1.1L21.73,13.39,16.68,3.24h-1.1L0,3.27l.75,1.5H14.69a1.9,1.9,0,0,1,1.6,1.11L16.85,7H8.34L9.85,8.53h6.71a1.91,1.91,0,0,1,1.6,1.11l.56,1.11h-5.5l1.52,1.52h3.69A1.92,1.92,0,0,1,20,13.39h0l1.71,3.43,1.71-3.43h0A1.92,1.92,0,0,1,25,12.28h3.69l1.52-1.52h-5.5l.56-1.11a1.91,1.91,0,0,1,1.6-1.11h6.71L35.12,7H26.61l.56-1.12A1.9,1.9,0,0,1,28.77,4.77Z"/><path class="cls-1" d="M21.73,5a7.73,7.73,0,0,1,2.5.44l.28.11L21.73,0,19,5.56l.28-.11A7.73,7.73,0,0,1,21.73,5Z"/></g></g></svg>