<svg viewBox="0 0 1440 457" version="1.1" xmlns="http://www.w3.org/2000/svg">
    <defs>
        <linearGradient x1="90.7367911%" y1="53.9270346%" x2="80.9917418%" y2="46.5051183%" id="linearGradient-1">
            <stop stop-color="#000000" offset="0%"></stop>
            <stop stop-color="#120D19" offset="99.9560362%"></stop>
            <stop stop-color="#120D19" offset="100%"></stop>
        </linearGradient>
    </defs>
    <g id="Page-1" stroke="none" stroke-width="1" fill="none" fill-rule="evenodd">
        <g id="Desktop-HD" transform="translate(0.000000, -635.000000)" fill="url(#linearGradient-1)">
            <path d="M1440,635 L1401.49977,635 L1330.55536,657.810726 L1280,709.662999 L1182.18555,749.874371 C1136.48233,805.403012 1110.42048,833.167332 1104,833.167332 C1094.36927,833.167332 923,848.003717 923,848.003717 C923,848.003717 808.853145,873.364078 795.245086,873.364078 C781.637027,873.364078 705,906.421905 705,906.421905 C705,906.421905 663.466759,920.160267 580.400277,947.636991 C537.466759,960.760901 516,967.322856 516,967.322856 C516,967.322856 457.781208,1008.1528 434.694799,1008.1528 C419.30386,1008.1528 387.116549,1013.46639 338.132865,1024.09359 C297.133286,1053.48804 276.633496,1068.18526 276.633496,1068.18526 C276.633496,1068.18526 169.534038,1048.98274 159,1048.98274 C151.977308,1048.98274 125.643975,1055.38358 80,1068.18526 L0,1092 L1440,1092" id="Path"></path>
        </g>
    </g>
</svg>
