<svg viewBox="0 0 48 48" xmlns="http://www.w3.org/2000/svg">
    <title>Quotation</title>
    <g id="quotemark" stroke="none" stroke-width="1" fill="none" fill-rule="evenodd">
        <path d="M10.5625718,42 C17.3226177,42 21.2307692,37.4115854 21.2307692,31.7560976 C21.2307692,25.3536585 16.2663605,22.2591463 11.7244546,22.5792683 C12.358209,17.3506098 14.8932262,11.695122 21.1251435,7.42682927 L20.7026406,7 C9.18943743,12.3353659 0,20.7652439 0,30.3689024 C0,36.7713415 3.90815155,42 10.5625718,42 Z M37.3318025,42 C44.0918485,42 48,37.4115854 48,31.7560976 C48,25.3536585 43.0355913,22.2591463 38.4936854,22.5792683 C39.1274397,17.3506098 41.6624569,11.695122 47.8943743,7.42682927 L47.4718714,7 C35.9586682,12.3353659 26.7692308,20.7652439 26.7692308,30.3689024 C26.7692308,36.7713415 30.6773823,42 37.3318025,42 Z" fill="currentColor" fill-rule="nonzero"></path>
    </g>
</svg>
